<?xml version="1.0" encoding="utf-8"?>
<!-- Generator: Adobe Illustrator 27.4.0, SVG Export Plug-In . SVG Version: 6.00 Build 0)  -->
<svg version="1.1" id="Capa_1" xmlns="http://www.w3.org/2000/svg" xmlns:xlink="http://www.w3.org/1999/xlink" x="0px" y="0px"
	 viewBox="0 0 1975.1 505.1" style="enable-background:new 0 0 1975.1 505.1;" xml:space="preserve">
<style type="text/css">
	.st0{fill:#D4CBC4;}
	.st1{font-family:'MedievalSharp';}
	.st2{font-size:378px;}
</style>
<g id="Capa_15">
	<text transform="matrix(1 0 0 1 424.5611 484.6867)" class="st0 st1 st2">Relicario</text>
</g>
<g id="Capa_6_copia_3">
	<path class="st0" d="M363.9,424.1c8-4.4,14.6-9,20-13.3c-6,12.7-17.3,32.6-37.9,50.7c-13.3,11.7-26.5,19.2-36.8,24
		c-15.3-50.4-30.6-100.8-45.9-151.2c5.7-1.8,22.3-7.8,34.3-24.7c15.9-22.4,11.5-46.8,10.7-51.3c4.9,11,10.8,27.4,12.9,48.2
		c1.7,16.8,0.3,31.2-1.6,41.8c8-8.3,17.9-20.4,26.1-36.8c10.5-21,14.2-40.7,15.3-55c0.9,0,1.8-0.1,2.8-0.1c3.1,15.7,5.5,40-1.7,67.9
		c-6.4,25.2-18,43.5-26.1,54.2c10-5.8,23.8-15.4,37.1-30.4c10.6-12.1,17.5-23.9,21.9-33.1c-2.1,13.2-7.1,34.1-20.5,56.1
		c-9.8,16.2-21,27.7-29.6,35.4c7-3.6,15.2-8.4,23.6-15.1c13.7-10.8,23-22.3,29.1-31.3c-3.6,10.8-9.9,25.7-21,41.3
		c-9.9,13.8-20.4,23.7-28.6,30.4C352.7,429.7,358.2,427.3,363.9,424.1L363.9,424.1z"/>
	<path class="st0" d="M225.8,334.1c-15.3,50.4-30.6,100.8-45.9,151.2c-10.3-4.8-23.5-12.3-36.8-24c-20.6-18.1-31.9-37.9-37.9-50.7
		c5.4,4.3,12,9,19.9,13.3c5.7,3.2,11.2,5.6,16.1,7.6c-8.3-6.7-18.8-16.6-28.6-30.4c-11.1-15.6-17.4-30.4-21.1-41.3
		c6.1,9,15.4,20.5,29.1,31.3c8.4,6.6,16.6,11.5,23.6,15.1c-8.6-7.7-19.8-19.2-29.6-35.4c-13.4-22-18.4-42.9-20.5-56.1
		c4.4,9.2,11.3,21,21.9,33.1c13.2,15.1,27.1,24.7,37.1,30.4c-8.1-10.7-19.7-29-26.1-54.2c-7.1-28-4.8-52.2-1.7-68
		c0.9,0,1.8,0.1,2.7,0.1c1.2,14.3,4.8,34.1,15.4,55.1c8.2,16.4,18.2,28.6,26.1,36.8c-1.9-10.6-3.2-24.9-1.6-41.8
		c2.1-20.7,7.9-37.2,12.9-48.2c-0.9,4.4-5.2,28.9,10.7,51.3C203.6,326.3,220.2,332.3,225.8,334.1L225.8,334.1z"/>
</g>
<g id="Capa_12_copia">
	<path class="st0" d="M361.6,247.1l41.8,7.7c-13.2,0.5-26.5,1-39.7,1.4c-0.9,0-1.8,0.1-2.8,0.1c-17.6,0.6-35.2,1.3-52.8,1.9
		c-6.3-30.1-33-51.8-63.7-51.8c-30.6,0-57.3,21.7-63.6,51.7c-17.6-0.7-35.2-1.3-52.8-1.9c-0.9,0-1.8-0.1-2.7-0.1
		c-13-0.5-26.1-1-39.1-1.4l41.2-7.8h0.1l49.2-9.2L44.6,105.5L199,211v-17.3l-42.5-51.2l42.5,35.3v-58.9l13.1,69.8l15.3,12.7
		l17.3-186.2L262,201.4l15.9-13.2l12.6-68.7l0.2,58l42.2-35l-42.1,50.7l0.1,18.4l153.9-106.2L313.1,238.1l48.7,8.9L361.6,247.1
		L361.6,247.1z"/>
</g>
</svg>
